<svg aria-hidden="true" style="position: absolute; width: 0; height: 0; overflow: hidden;" version="1.1" xmlns="http://www.w3.org/2000/svg" xmlns:xlink="http://www.w3.org/1999/xlink">
    <defs>
        <symbol id="icon-arrow" viewBox="0 0 48 32">
            <path d="M40.063 18.635c-0.261-1.955-0.43-3.7-0.506-5.235-0.033-1.56 0.026-2.91 0.178-4.050l-37.94 21.905-1.795-3.109 37.94-21.905c-1.092-0.488-2.305-1.137-3.639-1.945-1.291-0.834-2.704-1.827-4.238-2.981l2.278-1.315c4.813 2.024 9.215 3.036 13.206 3.035l0.769 1.332c-2.025 3.406-3.35 7.724-3.975 12.954l-2.278 1.315z"></path>
        </symbol>
        <symbol id="icon-star" viewBox="0 0 32 32">
            <path d="M15.326 0.328c0.251-0.437 0.881-0.437 1.133 0l1.84 3.203c0.19 0.33 0.621 0.429 0.935 0.214l3.081-2.107c0.418-0.286 0.987-0.008 1.020 0.496l0.239 3.642c0.025 0.383 0.374 0.662 0.754 0.602l3.69-0.584c0.504-0.080 0.9 0.423 0.706 0.894l-1.386 3.36c-0.148 0.359 0.048 0.767 0.421 0.876l3.555 1.036c0.493 0.144 0.635 0.773 0.252 1.115l-2.731 2.433c-0.292 0.26-0.292 0.715 0 0.975l2.731 2.433c0.383 0.341 0.241 0.971-0.252 1.115l-3.555 1.036c-0.373 0.109-0.569 0.517-0.421 0.876l1.386 3.36c0.194 0.471-0.202 0.974-0.706 0.894l-3.69-0.584c-0.38-0.060-0.729 0.219-0.754 0.602l-0.239 3.642c-0.033 0.505-0.603 0.782-1.020 0.496l-3.081-2.107c-0.314-0.215-0.745-0.116-0.935 0.214l-1.84 3.203c-0.251 0.437-0.881 0.437-1.133 0l-1.84-3.203c-0.19-0.33-0.621-0.429-0.935-0.214l-3.081 2.107c-0.418 0.286-0.987 0.009-1.020-0.496l-0.239-3.642c-0.025-0.383-0.374-0.662-0.754-0.602l-3.69 0.584c-0.504 0.080-0.9-0.423-0.706-0.894l1.386-3.36c0.148-0.359-0.048-0.767-0.421-0.876l-3.555-1.036c-0.493-0.144-0.635-0.773-0.252-1.115l2.731-2.433c0.291-0.26 0.291-0.715 0-0.975l-2.731-2.433c-0.383-0.341-0.241-0.971 0.252-1.115l3.555-1.036c0.373-0.109 0.569-0.517 0.421-0.876l-1.386-3.36c-0.194-0.471 0.202-0.974 0.706-0.894l3.69 0.584c0.38 0.060 0.729-0.219 0.754-0.602l0.239-3.642c0.033-0.505 0.603-0.782 1.020-0.496l3.081 2.107c0.314 0.215 0.745 0.116 0.935-0.214l1.84-3.203z"></path>
        </symbol>
        <symbol id="icon-background-img-about-us" viewBox="0 0 36 32">
            <path d="M35.985 31.964h-1.124v-1.142h1.124v1.142z"></path>
            <path d="M34.861 31.964h-1.124v-1.142h1.124v1.142z"></path>
            <path d="M30.366 31.964h-1.124v-1.142h1.124v1.142z"></path>
            <path d="M29.242 31.964h-1.124v-1.142h1.124v1.142z"></path>
            <path d="M28.118 31.964h-1.124v-1.142h1.124v1.142z"></path>
            <path d="M21.375 31.964h-1.124v-1.142h1.124v1.142z"></path>
            <path d="M14.632 31.964h-1.124v-1.142h1.124v1.142z"></path>
            <path d="M7.889 31.964h-1.124v-1.142h1.124v1.142z"></path>
            <path d="M6.765 31.964h-1.124v-1.142h1.124v1.142z"></path>
            <path d="M5.641 31.964h-1.124v-1.142h1.124v1.142z"></path>
            <path d="M1.146 31.964h-1.124v-1.142h1.124v1.142z"></path>
            <path d="M35.985 30.823h-1.124v-1.142h1.124v1.142z"></path>
            <path d="M31.489 30.823h-1.124v-1.142h1.124v1.142z"></path>
            <path d="M30.366 30.823h-1.124v-1.142h1.124v1.142z"></path>
            <path d="M29.242 30.823h-1.124v-1.142h1.124v1.142z"></path>
            <path d="M21.375 30.823h-1.124v-1.142h1.124v1.142z"></path>
            <path d="M20.251 30.823h-1.124v-1.142h1.124v1.142z"></path>
            <path d="M15.756 30.823h-1.124v-1.142h1.124v1.142z"></path>
            <path d="M14.632 30.823h-1.124v-1.142h1.124v1.142z"></path>
            <path d="M6.765 30.823h-1.124v-1.142h1.124v1.142z"></path>
            <path d="M5.641 30.823h-1.124v-1.142h1.124v1.142z"></path>
            <path d="M4.518 30.823h-1.124v-1.142h1.124v1.142z"></path>
            <path d="M32.613 29.681h-1.124v-1.142h1.124v1.142z"></path>
            <path d="M31.489 29.681h-1.124v-1.142h1.124v1.142z"></path>
            <path d="M30.366 29.681h-1.124v-1.142h1.124v1.142z"></path>
            <path d="M21.375 29.681h-1.124v-1.142h1.124v1.142z"></path>
            <path d="M20.251 29.681h-1.124v-1.142h1.124v1.142z"></path>
            <path d="M19.127 29.681h-1.124v-1.142h1.124v1.142z"></path>
            <path d="M16.88 29.681h-1.124v-1.142h1.124v1.142z"></path>
            <path d="M15.756 29.681h-1.124v-1.142h1.124v1.142z"></path>
            <path d="M14.632 29.681h-1.124v-1.142h1.124v1.142z"></path>
            <path d="M5.641 29.681h-1.124v-1.142h1.124v1.142z"></path>
            <path d="M4.518 29.681h-1.124v-1.142h1.124v1.142z"></path>
            <path d="M3.394 29.681h-1.124v-1.142h1.124v1.142z"></path>
            <path d="M33.737 28.54h-1.124v-1.142h1.124v1.142z"></path>
            <path d="M32.613 28.54h-1.124v-1.142h1.124v1.142z"></path>
            <path d="M31.489 28.54h-1.124v-1.142h1.124v1.142z"></path>
            <path d="M25.87 28.54h-1.124v-1.142h1.124v1.142z"></path>
            <path d="M24.746 28.54h-1.124v-1.142h1.124v1.142z"></path>
            <path d="M23.623 28.54h-1.124v-1.142h1.124v1.142z"></path>
            <path d="M20.251 28.54h-1.124v-1.142h1.124v1.142z"></path>
            <path d="M19.127 28.54h-1.124v-1.142h1.124v1.142z"></path>
            <path d="M16.88 28.54h-1.124v-1.142h1.124v1.142z"></path>
            <path d="M15.756 28.54h-1.124v-1.142h1.124v1.142z"></path>
            <path d="M12.384 28.54h-1.124v-1.142h1.124v1.142z"></path>
            <path d="M11.261 28.54h-1.124v-1.142h1.124v1.142z"></path>
            <path d="M10.137 28.54h-1.124v-1.142h1.124v1.142z"></path>
            <path d="M4.518 28.54h-1.124v-1.142h1.124v1.142z"></path>
            <path d="M3.394 28.54h-1.124v-1.142h1.124v1.142z"></path>
            <path d="M2.27 28.54h-1.124v-1.142h1.124v1.142z"></path>
            <path d="M34.861 27.398h-1.124v-1.142h1.124v1.142z"></path>
            <path d="M33.737 27.398h-1.124v-1.142h1.124v1.142z"></path>
            <path d="M32.613 27.398h-1.124v-1.142h1.124v1.142z"></path>
            <path d="M24.746 27.398h-1.124v-1.142h1.124v1.142z"></path>
            <path d="M23.623 27.398h-1.124v-1.142h1.124v1.142z"></path>
            <path d="M22.499 27.398h-1.124v-1.142h1.124v1.142z"></path>
            <path d="M19.127 27.398h-1.124v-1.142h1.124v1.142z"></path>
            <path d="M16.88 27.398h-1.124v-1.142h1.124v1.142z"></path>
            <path d="M13.508 27.398h-1.124v-1.142h1.124v1.142z"></path>
            <path d="M12.384 27.398h-1.124v-1.142h1.124v1.142z"></path>
            <path d="M11.261 27.398h-1.124v-1.142h1.124v1.142z"></path>
            <path d="M3.394 27.398h-1.124v-1.142h1.124v1.142z"></path>
            <path d="M2.27 27.398h-1.124v-1.142h1.124v1.142z"></path>
            <path d="M1.146 27.398h-1.124v-1.142h1.124v1.142z"></path>
            <path d="M34.861 26.256h-1.124v-1.142h1.124v1.142z"></path>
            <path d="M33.737 26.256h-1.124v-1.142h1.124v1.142z"></path>
            <path d="M23.623 26.256h-1.124v-1.142h1.124v1.142z"></path>
            <path d="M22.499 26.256h-1.124v-1.142h1.124v1.142z"></path>
            <path d="M21.375 26.256h-1.124v-1.142h1.124v1.142z"></path>
            <path d="M14.632 26.256h-1.124v-1.142h1.124v1.142z"></path>
            <path d="M13.508 26.256h-1.124v-1.142h1.124v1.142z"></path>
            <path d="M12.384 26.256h-1.124v-1.142h1.124v1.142z"></path>
            <path d="M2.27 26.256h-1.124v-1.142h1.124v1.142z"></path>
            <path d="M1.146 26.256h-1.124v-1.142h1.124v1.142z"></path>
            <path d="M34.861 25.115h-1.124v-1.142h1.124v1.142z"></path>
            <path d="M29.242 25.115h-1.124v-1.142h1.124v1.142z"></path>
            <path d="M19.127 25.115h-1.124v-1.142h1.124v1.142z"></path>
            <path d="M16.88 25.115h-1.124v-1.142h1.124v1.142z"></path>
            <path d="M6.765 25.115h-1.124v-1.142h1.124v1.142z"></path>
            <path d="M1.146 25.115h-1.124v-1.142h1.124v1.142z"></path>
            <path d="M29.242 23.973h-1.124v-1.142h1.124v1.142z"></path>
            <path d="M28.118 23.973h-1.124v-1.142h1.124v1.142z"></path>
            <path d="M20.251 23.973h-1.124v-1.142h1.124v1.142z"></path>
            <path d="M19.127 23.973h-1.124v-1.142h1.124v1.142z"></path>
            <path d="M16.88 23.973h-1.124v-1.142h1.124v1.142z"></path>
            <path d="M15.756 23.973h-1.124v-1.142h1.124v1.142z"></path>
            <path d="M7.889 23.973h-1.124v-1.142h1.124v1.142z"></path>
            <path d="M6.765 23.973h-1.124v-1.142h1.124v1.142z"></path>
            <path d="M29.242 22.832h-1.124v-1.142h1.124v1.142z"></path>
            <path d="M28.118 22.832h-1.124v-1.142h1.124v1.142z"></path>
            <path d="M26.994 22.832h-1.124v-1.142h1.124v1.142z"></path>
            <path d="M21.375 22.832h-1.124v-1.142h1.124v1.142z"></path>
            <path d="M20.251 22.832h-1.124v-1.142h1.124v1.142z"></path>
            <path d="M15.756 22.832h-1.124v-1.142h1.124v1.142z"></path>
            <path d="M14.632 22.832h-1.124v-1.142h1.124v1.142z"></path>
            <path d="M9.013 22.832h-1.124v-1.142h1.124v1.142z"></path>
            <path d="M7.889 22.832h-1.124v-1.142h1.124v1.142z"></path>
            <path d="M6.765 22.832h-1.124v-1.142h1.124v1.142z"></path>
            <path d="M28.118 21.69h-1.124v-1.142h1.124v1.142z"></path>
            <path d="M26.994 21.69h-1.124v-1.142h1.124v1.142z"></path>
            <path d="M22.499 21.69h-1.124v-1.142h1.124v1.142z"></path>
            <path d="M21.375 21.69h-1.124v-1.142h1.124v1.142z"></path>
            <path d="M14.632 21.69h-1.124v-1.142h1.124v1.142z"></path>
            <path d="M13.508 21.69h-1.124v-1.142h1.124v1.142z"></path>
            <path d="M9.013 21.69h-1.124v-1.142h1.124v1.142z"></path>
            <path d="M7.889 21.69h-1.124v-1.142h1.124v1.142z"></path>
            <path d="M32.613 20.549h-1.124v-1.142h1.124v1.142z"></path>
            <path d="M31.489 20.549h-1.124v-1.142h1.124v1.142z"></path>
            <path d="M30.366 20.549h-1.124v-1.142h1.124v1.142z"></path>
            <path d="M26.994 20.549h-1.124v-1.142h1.124v1.142z"></path>
            <path d="M23.623 20.549h-1.124v-1.142h1.124v1.142z"></path>
            <path d="M22.499 20.549h-1.124v-1.142h1.124v1.142z"></path>
            <path d="M13.508 20.549h-1.124v-1.142h1.124v1.142z"></path>
            <path d="M12.384 20.549h-1.124v-1.142h1.124v1.142z"></path>
            <path d="M9.013 20.549h-1.124v-1.142h1.124v1.142z"></path>
            <path d="M5.641 20.549h-1.124v-1.142h1.124v1.142z"></path>
            <path d="M4.518 20.549h-1.124v-1.142h1.124v1.142z"></path>
            <path d="M3.394 20.549h-1.124v-1.142h1.124v1.142z"></path>
            <path d="M35.985 19.407h-1.124v-1.142h1.124v1.142z"></path>
            <path d="M31.489 19.407h-1.124v-1.142h1.124v1.142z"></path>
            <path d="M30.366 19.407h-1.124v-1.142h1.124v1.142z"></path>
            <path d="M29.242 19.407h-1.124v-1.142h1.124v1.142z"></path>
            <path d="M24.746 19.407h-1.124v-1.142h1.124v1.142z"></path>
            <path d="M23.623 19.407h-1.124v-1.142h1.124v1.142z"></path>
            <path d="M12.384 19.407h-1.124v-1.142h1.124v1.142z"></path>
            <path d="M11.261 19.407h-1.124v-1.142h1.124v1.142z"></path>
            <path d="M6.765 19.407h-1.124v-1.142h1.124v1.142z"></path>
            <path d="M5.641 19.407h-1.124v-1.142h1.124v1.142z"></path>
            <path d="M4.518 19.407h-1.124v-1.142h1.124v1.142z"></path>
            <path d="M35.985 18.265h-1.124v-1.142h1.124v1.142z"></path>
            <path d="M34.861 18.265h-1.124v-1.142h1.124v1.142z"></path>
            <path d="M30.366 18.265h-1.124v-1.142h1.124v1.142z"></path>
            <path d="M29.242 18.265h-1.124v-1.142h1.124v1.142z"></path>
            <path d="M28.118 18.265h-1.124v-1.142h1.124v1.142z"></path>
            <path d="M25.87 18.265h-1.124v-1.142h1.124v1.142z"></path>
            <path d="M24.746 18.265h-1.124v-1.142h1.124v1.142z"></path>
            <path d="M18.004 18.265h-1.124v-1.142h1.124v1.142z"></path>
            <path d="M11.261 18.265h-1.124v-1.142h1.124v1.142z"></path>
            <path d="M10.137 18.265h-1.124v-1.142h1.124v1.142z"></path>
            <path d="M7.889 18.265h-1.124v-1.142h1.124v1.142z"></path>
            <path d="M6.765 18.265h-1.124v-1.142h1.124v1.142z"></path>
            <path d="M5.641 18.265h-1.124v-1.142h1.124v1.142z"></path>
            <path d="M1.124 17.124h-1.124v-1.142h1.124v1.142z"></path>
            <path d="M2.27 17.124h-1.124v-1.142h1.124v1.142z"></path>
            <path d="M1.124 18.265h-1.124v-1.142h1.124v1.142z"></path>
            <path d="M1.124 15.982h-1.124v-1.142h1.124v1.142z"></path>
            <path d="M35.985 17.124h-1.124v-1.142h1.124v1.142z"></path>
            <path d="M34.861 17.124h-1.124v-1.142h1.124v1.142z"></path>
            <path d="M33.737 17.124h-1.124v-1.142h1.124v1.142z"></path>
            <path d="M19.127 17.124h-1.124v-1.142h1.124v1.142z"></path>
            <path d="M18.004 17.124h-1.124v-1.142h1.124v1.142z"></path>
            <path d="M16.88 17.124h-1.124v-1.142h1.124v1.142z"></path>
            <path d="M35.985 15.982h-1.124v-1.142h1.124v1.142z"></path>
            <path d="M34.861 15.982h-1.124v-1.142h1.124v1.142z"></path>
            <path d="M30.366 15.982h-1.124v-1.142h1.124v1.142z"></path>
            <path d="M29.242 15.982h-1.124v-1.142h1.124v1.142z"></path>
            <path d="M28.118 15.982h-1.124v-1.142h1.124v1.142z"></path>
            <path d="M25.87 15.982h-1.124v-1.142h1.124v1.142z"></path>
            <path d="M24.746 15.982h-1.124v-1.142h1.124v1.142z"></path>
            <path d="M18.004 15.982h-1.124v-1.142h1.124v1.142z"></path>
            <path d="M11.261 15.982h-1.124v-1.142h1.124v1.142z"></path>
            <path d="M10.137 15.982h-1.124v-1.142h1.124v1.142z"></path>
            <path d="M7.889 15.982h-1.124v-1.142h1.124v1.142z"></path>
            <path d="M6.765 15.982h-1.124v-1.142h1.124v1.142z"></path>
            <path d="M5.641 15.982h-1.124v-1.142h1.124v1.142z"></path>
            <path d="M35.985 14.841h-1.124v-1.142h1.124v1.142z"></path>
            <path d="M31.489 14.841h-1.124v-1.142h1.124v1.142z"></path>
            <path d="M30.366 14.841h-1.124v-1.142h1.124v1.142z"></path>
            <path d="M29.242 14.841h-1.124v-1.142h1.124v1.142z"></path>
            <path d="M24.746 14.841h-1.124v-1.142h1.124v1.142z"></path>
            <path d="M23.623 14.841h-1.124v-1.142h1.124v1.142z"></path>
            <path d="M12.384 14.841h-1.124v-1.142h1.124v1.142z"></path>
            <path d="M11.261 14.841h-1.124v-1.142h1.124v1.142z"></path>
            <path d="M6.765 14.841h-1.124v-1.142h1.124v1.142z"></path>
            <path d="M5.641 14.841h-1.124v-1.142h1.124v1.142z"></path>
            <path d="M4.518 14.841h-1.124v-1.142h1.124v1.142z"></path>
            <path d="M32.613 13.699h-1.124v-1.142h1.124v1.142z"></path>
            <path d="M31.489 13.699h-1.124v-1.142h1.124v1.142z"></path>
            <path d="M30.366 13.699h-1.124v-1.142h1.124v1.142z"></path>
            <path d="M26.994 13.699h-1.124v-1.142h1.124v1.142z"></path>
            <path d="M23.623 13.699h-1.124v-1.142h1.124v1.142z"></path>
            <path d="M22.499 13.699h-1.124v-1.142h1.124v1.142z"></path>
            <path d="M13.508 13.699h-1.124v-1.142h1.124v1.142z"></path>
            <path d="M12.384 13.699h-1.124v-1.142h1.124v1.142z"></path>
            <path d="M9.013 13.699h-1.124v-1.142h1.124v1.142z"></path>
            <path d="M5.641 13.699h-1.124v-1.142h1.124v1.142z"></path>
            <path d="M4.518 13.699h-1.124v-1.142h1.124v1.142z"></path>
            <path d="M3.394 13.699h-1.124v-1.142h1.124v1.142z"></path>
            <path d="M28.118 12.557h-1.124v-1.142h1.124v1.142z"></path>
            <path d="M26.994 12.557h-1.124v-1.142h1.124v1.142z"></path>
            <path d="M22.499 12.557h-1.124v-1.142h1.124v1.142z"></path>
            <path d="M21.375 12.557h-1.124v-1.142h1.124v1.142z"></path>
            <path d="M14.632 12.557h-1.124v-1.142h1.124v1.142z"></path>
            <path d="M13.508 12.557h-1.124v-1.142h1.124v1.142z"></path>
            <path d="M9.013 12.557h-1.124v-1.142h1.124v1.142z"></path>
            <path d="M7.889 12.557h-1.124v-1.142h1.124v1.142z"></path>
            <path d="M29.242 11.416h-1.124v-1.142h1.124v1.142z"></path>
            <path d="M28.118 11.416h-1.124v-1.142h1.124v1.142z"></path>
            <path d="M26.994 11.416h-1.124v-1.142h1.124v1.142z"></path>
            <path d="M21.375 11.416h-1.124v-1.142h1.124v1.142z"></path>
            <path d="M20.251 11.416h-1.124v-1.142h1.124v1.142z"></path>
            <path d="M15.756 11.416h-1.124v-1.142h1.124v1.142z"></path>
            <path d="M14.632 11.416h-1.124v-1.142h1.124v1.142z"></path>
            <path d="M9.013 11.416h-1.124v-1.142h1.124v1.142z"></path>
            <path d="M7.889 11.416h-1.124v-1.142h1.124v1.142z"></path>
            <path d="M6.765 11.416h-1.124v-1.142h1.124v1.142z"></path>
            <path d="M29.242 10.274h-1.124v-1.142h1.124v1.142z"></path>
            <path d="M28.118 10.274h-1.124v-1.142h1.124v1.142z"></path>
            <path d="M20.251 10.274h-1.124v-1.142h1.124v1.142z"></path>
            <path d="M19.127 10.274h-1.124v-1.142h1.124v1.142z"></path>
            <path d="M16.88 10.274h-1.124v-1.142h1.124v1.142z"></path>
            <path d="M15.756 10.274h-1.124v-1.142h1.124v1.142z"></path>
            <path d="M7.889 10.274h-1.124v-1.142h1.124v1.142z"></path>
            <path d="M6.765 10.274h-1.124v-1.142h1.124v1.142z"></path>
            <path d="M29.242 9.133h-1.124v-1.142h1.124v1.142z"></path>
            <path d="M19.127 9.133h-1.124v-1.142h1.124v1.142z"></path>
            <path d="M16.88 9.133h-1.124v-1.142h1.124v1.142z"></path>
            <path d="M6.765 9.133h-1.124v-1.142h1.124v1.142z"></path>
            <path d="M34.861 7.991h-1.124v-1.142h1.124v1.142z"></path>
            <path d="M1.146 7.991h-1.124v-1.142h1.124v1.142z"></path>
            <path d="M34.861 6.85h-1.124v-1.142h1.124v1.142z"></path>
            <path d="M33.737 6.85h-1.124v-1.142h1.124v1.142z"></path>
            <path d="M23.623 6.85h-1.124v-1.142h1.124v1.142z"></path>
            <path d="M22.499 6.85h-1.124v-1.142h1.124v1.142z"></path>
            <path d="M21.375 6.85h-1.124v-1.142h1.124v1.142z"></path>
            <path d="M14.632 6.85h-1.124v-1.142h1.124v1.142z"></path>
            <path d="M13.508 6.85h-1.124v-1.142h1.124v1.142z"></path>
            <path d="M12.384 6.85h-1.124v-1.142h1.124v1.142z"></path>
            <path d="M2.27 6.85h-1.124v-1.142h1.124v1.142z"></path>
            <path d="M1.146 6.85h-1.124v-1.142h1.124v1.142z"></path>
            <path d="M34.861 5.708h-1.124v-1.142h1.124v1.142z"></path>
            <path d="M33.737 5.708h-1.124v-1.142h1.124v1.142z"></path>
            <path d="M32.613 5.708h-1.124v-1.142h1.124v1.142z"></path>
            <path d="M24.746 5.708h-1.124v-1.142h1.124v1.142z"></path>
            <path d="M23.623 5.708h-1.124v-1.142h1.124v1.142z"></path>
            <path d="M22.499 5.708h-1.124v-1.142h1.124v1.142z"></path>
            <path d="M19.127 5.708h-1.124v-1.142h1.124v1.142z"></path>
            <path d="M16.88 5.708h-1.124v-1.142h1.124v1.142z"></path>
            <path d="M13.508 5.708h-1.124v-1.142h1.124v1.142z"></path>
            <path d="M12.384 5.708h-1.124v-1.142h1.124v1.142z"></path>
            <path d="M11.261 5.708h-1.124v-1.142h1.124v1.142z"></path>
            <path d="M3.394 5.708h-1.124v-1.142h1.124v1.142z"></path>
            <path d="M2.27 5.708h-1.124v-1.142h1.124v1.142z"></path>
            <path d="M1.146 5.708h-1.124v-1.142h1.124v1.142z"></path>
            <path d="M33.737 4.566h-1.124v-1.142h1.124v1.142z"></path>
            <path d="M32.613 4.566h-1.124v-1.142h1.124v1.142z"></path>
            <path d="M31.489 4.566h-1.124v-1.142h1.124v1.142z"></path>
            <path d="M25.87 4.566h-1.124v-1.142h1.124v1.142z"></path>
            <path d="M24.746 4.566h-1.124v-1.142h1.124v1.142z"></path>
            <path d="M23.623 4.566h-1.124v-1.142h1.124v1.142z"></path>
            <path d="M20.251 4.566h-1.124v-1.142h1.124v1.142z"></path>
            <path d="M19.127 4.566h-1.124v-1.142h1.124v1.142z"></path>
            <path d="M16.88 4.566h-1.124v-1.142h1.124v1.142z"></path>
            <path d="M15.756 4.566h-1.124v-1.142h1.124v1.142z"></path>
            <path d="M12.384 4.566h-1.124v-1.142h1.124v1.142z"></path>
            <path d="M11.261 4.566h-1.124v-1.142h1.124v1.142z"></path>
            <path d="M10.137 4.566h-1.124v-1.142h1.124v1.142z"></path>
            <path d="M4.518 4.566h-1.124v-1.142h1.124v1.142z"></path>
            <path d="M3.394 4.566h-1.124v-1.142h1.124v1.142z"></path>
            <path d="M2.27 4.566h-1.124v-1.142h1.124v1.142z"></path>
            <path d="M32.613 3.425h-1.124v-1.142h1.124v1.142z"></path>
            <path d="M31.489 3.425h-1.124v-1.142h1.124v1.142z"></path>
            <path d="M30.366 3.425h-1.124v-1.142h1.124v1.142z"></path>
            <path d="M21.375 3.425h-1.124v-1.142h1.124v1.142z"></path>
            <path d="M20.251 3.425h-1.124v-1.142h1.124v1.142z"></path>
            <path d="M19.127 3.425h-1.124v-1.142h1.124v1.142z"></path>
            <path d="M16.88 3.425h-1.124v-1.142h1.124v1.142z"></path>
            <path d="M15.756 3.425h-1.124v-1.142h1.124v1.142z"></path>
            <path d="M14.632 3.425h-1.124v-1.142h1.124v1.142z"></path>
            <path d="M5.641 3.425h-1.124v-1.142h1.124v1.142z"></path>
            <path d="M4.518 3.425h-1.124v-1.142h1.124v1.142z"></path>
            <path d="M3.394 3.425h-1.124v-1.142h1.124v1.142z"></path>
            <path d="M35.985 2.283h-1.124v-1.142h1.124v1.142z"></path>
            <path d="M31.489 2.283h-1.124v-1.142h1.124v1.142z"></path>
            <path d="M30.366 2.283h-1.124v-1.142h1.124v1.142z"></path>
            <path d="M29.242 2.283h-1.124v-1.142h1.124v1.142z"></path>
            <path d="M21.375 2.283h-1.124v-1.142h1.124v1.142z"></path>
            <path d="M20.251 2.283h-1.124v-1.142h1.124v1.142z"></path>
            <path d="M15.756 2.283h-1.124v-1.142h1.124v1.142z"></path>
            <path d="M14.632 2.283h-1.124v-1.142h1.124v1.142z"></path>
            <path d="M6.765 2.283h-1.124v-1.142h1.124v1.142z"></path>
            <path d="M5.641 2.283h-1.124v-1.142h1.124v1.142z"></path>
            <path d="M4.518 2.283h-1.124v-1.142h1.124v1.142z"></path>
            <path d="M35.985 1.142h-1.124v-1.142h1.124v1.142z"></path>
            <path d="M34.861 1.142h-1.124v-1.142h1.124v1.142z"></path>
            <path d="M30.366 1.142h-1.124v-1.142h1.124v1.142z"></path>
            <path d="M29.242 1.142h-1.124v-1.142h1.124v1.142z"></path>
            <path d="M28.118 1.142h-1.124v-1.142h1.124v1.142z"></path>
            <path d="M21.375 1.142h-1.124v-1.142h1.124v1.142z"></path>
            <path d="M14.632 1.142h-1.124v-1.142h1.124v1.142z"></path>
            <path d="M7.889 1.142h-1.124v-1.142h1.124v1.142z"></path>
            <path d="M6.765 1.142h-1.124v-1.142h1.124v1.142z"></path>
            <path d="M5.641 1.142h-1.124v-1.142h1.124v1.142z"></path>
            <path d="M1.146 1.142h-1.124v-1.142h1.124v1.142z"></path>
        </symbol>
        <symbol id="icon-yellowelement" viewBox="0 0 18 32">
            <path d="M17.978 31.964h-1.124v-1.142h1.124v1.142z"></path>
            <path d="M16.854 31.964h-1.124v-1.142h1.124v1.142z"></path>
            <path d="M12.356 31.964h-1.124v-1.142h1.124v1.142z"></path>
            <path d="M11.231 31.964h-1.124v-1.142h1.124v1.142z"></path>
            <path d="M10.107 31.964h-1.124v-1.142h1.124v1.142z"></path>
            <path d="M3.36 31.964h-1.124v-1.142h1.124v1.142z"></path>
            <path d="M17.978 30.823h-1.124v-1.142h1.124v1.142z"></path>
            <path d="M13.48 30.823h-1.124v-1.142h1.124v1.142z"></path>
            <path d="M12.356 30.823h-1.124v-1.142h1.124v1.142z"></path>
            <path d="M11.231 30.823h-1.124v-1.142h1.124v1.142z"></path>
            <path d="M3.36 30.823h-1.124v-1.142h1.124v1.142z"></path>
            <path d="M2.236 30.823h-1.124v-1.142h1.124v1.142z"></path>
            <path d="M14.605 29.681h-1.124v-1.142h1.124v1.142z"></path>
            <path d="M13.48 29.681h-1.124v-1.142h1.124v1.142z"></path>
            <path d="M12.356 29.681h-1.124v-1.142h1.124v1.142z"></path>
            <path d="M3.36 29.681h-1.124v-1.142h1.124v1.142z"></path>
            <path d="M2.236 29.681h-1.124v-1.142h1.124v1.142z"></path>
            <path d="M1.111 29.681h-1.124v-1.142h1.124v1.142z"></path>
            <path d="M15.729 28.54h-1.124v-1.142h1.124v1.142z"></path>
            <path d="M14.605 28.54h-1.124v-1.142h1.124v1.142z"></path>
            <path d="M13.48 28.54h-1.124v-1.142h1.124v1.142z"></path>
            <path d="M7.858 28.54h-1.124v-1.142h1.124v1.142z"></path>
            <path d="M6.734 28.54h-1.124v-1.142h1.124v1.142z"></path>
            <path d="M5.609 28.54h-1.124v-1.142h1.124v1.142z"></path>
            <path d="M2.236 28.54h-1.124v-1.142h1.124v1.142z"></path>
            <path d="M1.111 28.54h-1.124v-1.142h1.124v1.142z"></path>
            <path d="M16.854 27.398h-1.124v-1.142h1.124v1.142z"></path>
            <path d="M15.729 27.398h-1.124v-1.142h1.124v1.142z"></path>
            <path d="M14.605 27.398h-1.124v-1.142h1.124v1.142z"></path>
            <path d="M6.734 27.398h-1.124v-1.142h1.124v1.142z"></path>
            <path d="M5.609 27.398h-1.124v-1.142h1.124v1.142z"></path>
            <path d="M4.485 27.398h-1.124v-1.142h1.124v1.142z"></path>
            <path d="M1.111 27.398h-1.124v-1.142h1.124v1.142z"></path>
            <path d="M16.854 26.256h-1.124v-1.142h1.124v1.142z"></path>
            <path d="M15.729 26.256h-1.124v-1.142h1.124v1.142z"></path>
            <path d="M5.609 26.256h-1.124v-1.142h1.124v1.142z"></path>
            <path d="M4.485 26.256h-1.124v-1.142h1.124v1.142z"></path>
            <path d="M3.36 26.256h-1.124v-1.142h1.124v1.142z"></path>
            <path d="M16.854 25.115h-1.124v-1.142h1.124v1.142z"></path>
            <path d="M11.231 25.115h-1.124v-1.142h1.124v1.142z"></path>
            <path d="M1.111 25.115h-1.124v-1.142h1.124v1.142z"></path>
            <path d="M11.231 23.973h-1.124v-1.142h1.124v1.142z"></path>
            <path d="M10.107 23.973h-1.124v-1.142h1.124v1.142z"></path>
            <path d="M2.236 23.973h-1.124v-1.142h1.124v1.142z"></path>
            <path d="M1.111 23.973h-1.124v-1.142h1.124v1.142z"></path>
            <path d="M11.231 22.832h-1.124v-1.142h1.124v1.142z"></path>
            <path d="M10.107 22.832h-1.124v-1.142h1.124v1.142z"></path>
            <path d="M8.983 22.832h-1.124v-1.142h1.124v1.142z"></path>
            <path d="M3.36 22.832h-1.124v-1.142h1.124v1.142z"></path>
            <path d="M2.236 22.832h-1.124v-1.142h1.124v1.142z"></path>
            <path d="M10.107 21.69h-1.124v-1.142h1.124v1.142z"></path>
            <path d="M8.983 21.69h-1.124v-1.142h1.124v1.142z"></path>
            <path d="M4.485 21.69h-1.124v-1.142h1.124v1.142z"></path>
            <path d="M3.36 21.69h-1.124v-1.142h1.124v1.142z"></path>
            <path d="M14.605 20.548h-1.124v-1.142h1.124v1.142z"></path>
            <path d="M13.48 20.548h-1.124v-1.142h1.124v1.142z"></path>
            <path d="M12.356 20.548h-1.124v-1.142h1.124v1.142z"></path>
            <path d="M8.983 20.548h-1.124v-1.142h1.124v1.142z"></path>
            <path d="M5.609 20.548h-1.124v-1.142h1.124v1.142z"></path>
            <path d="M4.485 20.548h-1.124v-1.142h1.124v1.142z"></path>
            <path d="M17.978 19.407h-1.124v-1.142h1.124v1.142z"></path>
            <path d="M13.48 19.407h-1.124v-1.142h1.124v1.142z"></path>
            <path d="M12.356 19.407h-1.124v-1.142h1.124v1.142z"></path>
            <path d="M11.231 19.407h-1.124v-1.142h1.124v1.142z"></path>
            <path d="M6.734 19.407h-1.124v-1.142h1.124v1.142z"></path>
            <path d="M5.609 19.407h-1.124v-1.142h1.124v1.142z"></path>
            <path d="M17.978 18.265h-1.124v-1.142h1.124v1.142z"></path>
            <path d="M16.854 18.265h-1.124v-1.142h1.124v1.142z"></path>
            <path d="M12.356 18.265h-1.124v-1.142h1.124v1.142z"></path>
            <path d="M11.231 18.265h-1.124v-1.142h1.124v1.142z"></path>
            <path d="M10.107 18.265h-1.124v-1.142h1.124v1.142z"></path>
            <path d="M7.858 18.265h-1.124v-1.142h1.124v1.142z"></path>
            <path d="M6.734 18.265h-1.124v-1.142h1.124v1.142z"></path>
            <path d="M17.978 17.124h-1.124v-1.142h1.124v1.142z"></path>
            <path d="M16.854 17.124h-1.124v-1.142h1.124v1.142z"></path>
            <path d="M15.729 17.124h-1.124v-1.142h1.124v1.142z"></path>
            <path d="M1.111 17.124h-1.124v-1.142h1.124v1.142z"></path>
            <path d="M17.978 15.982h-1.124v-1.142h1.124v1.142z"></path>
            <path d="M16.854 15.982h-1.124v-1.142h1.124v1.142z"></path>
            <path d="M12.356 15.982h-1.124v-1.142h1.124v1.142z"></path>
            <path d="M11.231 15.982h-1.124v-1.142h1.124v1.142z"></path>
            <path d="M10.107 15.982h-1.124v-1.142h1.124v1.142z"></path>
            <path d="M7.858 15.982h-1.124v-1.142h1.124v1.142z"></path>
            <path d="M6.734 15.982h-1.124v-1.142h1.124v1.142z"></path>
            <path d="M17.978 14.841h-1.124v-1.142h1.124v1.142z"></path>
            <path d="M13.48 14.841h-1.124v-1.142h1.124v1.142z"></path>
            <path d="M12.356 14.841h-1.124v-1.142h1.124v1.142z"></path>
            <path d="M11.231 14.841h-1.124v-1.142h1.124v1.142z"></path>
            <path d="M6.734 14.841h-1.124v-1.142h1.124v1.142z"></path>
            <path d="M5.609 14.841h-1.124v-1.142h1.124v1.142z"></path>
            <path d="M14.605 13.699h-1.124v-1.142h1.124v1.142z"></path>
            <path d="M13.48 13.699h-1.124v-1.142h1.124v1.142z"></path>
            <path d="M12.356 13.699h-1.124v-1.142h1.124v1.142z"></path>
            <path d="M8.983 13.699h-1.124v-1.142h1.124v1.142z"></path>
            <path d="M5.609 13.699h-1.124v-1.142h1.124v1.142z"></path>
            <path d="M4.485 13.699h-1.124v-1.142h1.124v1.142z"></path>
            <path d="M10.107 12.557h-1.124v-1.142h1.124v1.142z"></path>
            <path d="M8.983 12.557h-1.124v-1.142h1.124v1.142z"></path>
            <path d="M4.485 12.557h-1.124v-1.142h1.124v1.142z"></path>
            <path d="M3.36 12.557h-1.124v-1.142h1.124v1.142z"></path>
            <path d="M11.231 11.416h-1.124v-1.142h1.124v1.142z"></path>
            <path d="M10.107 11.416h-1.124v-1.142h1.124v1.142z"></path>
            <path d="M8.983 11.416h-1.124v-1.142h1.124v1.142z"></path>
            <path d="M3.36 11.416h-1.124v-1.142h1.124v1.142z"></path>
            <path d="M2.236 11.416h-1.124v-1.142h1.124v1.142z"></path>
            <path d="M11.231 10.274h-1.124v-1.142h1.124v1.142z"></path>
            <path d="M10.107 10.274h-1.124v-1.142h1.124v1.142z"></path>
            <path d="M2.236 10.274h-1.124v-1.142h1.124v1.142z"></path>
            <path d="M1.111 10.274h-1.124v-1.142h1.124v1.142z"></path>
            <path d="M11.231 9.133h-1.124v-1.142h1.124v1.142z"></path>
            <path d="M1.111 9.133h-1.124v-1.142h1.124v1.142z"></path>
            <path d="M16.854 7.991h-1.124v-1.142h1.124v1.142z"></path>
            <path d="M16.854 6.849h-1.124v-1.142h1.124v1.142z"></path>
            <path d="M15.729 6.849h-1.124v-1.142h1.124v1.142z"></path>
            <path d="M5.609 6.849h-1.124v-1.142h1.124v1.142z"></path>
            <path d="M4.485 6.849h-1.124v-1.142h1.124v1.142z"></path>
            <path d="M3.36 6.849h-1.124v-1.142h1.124v1.142z"></path>
            <path d="M16.854 5.708h-1.124v-1.142h1.124v1.142z"></path>
            <path d="M15.729 5.708h-1.124v-1.142h1.124v1.142z"></path>
            <path d="M14.605 5.708h-1.124v-1.142h1.124v1.142z"></path>
            <path d="M6.734 5.708h-1.124v-1.142h1.124v1.142z"></path>
            <path d="M5.609 5.708h-1.124v-1.142h1.124v1.142z"></path>
            <path d="M4.485 5.708h-1.124v-1.142h1.124v1.142z"></path>
            <path d="M1.111 5.708h-1.124v-1.142h1.124v1.142z"></path>
            <path d="M15.729 4.566h-1.124v-1.142h1.124v1.142z"></path>
            <path d="M14.605 4.566h-1.124v-1.142h1.124v1.142z"></path>
            <path d="M13.48 4.566h-1.124v-1.142h1.124v1.142z"></path>
            <path d="M7.858 4.566h-1.124v-1.142h1.124v1.142z"></path>
            <path d="M6.734 4.566h-1.124v-1.142h1.124v1.142z"></path>
            <path d="M5.609 4.566h-1.124v-1.142h1.124v1.142z"></path>
            <path d="M2.236 4.566h-1.124v-1.142h1.124v1.142z"></path>
            <path d="M1.111 4.566h-1.124v-1.142h1.124v1.142z"></path>
            <path d="M14.605 3.425h-1.124v-1.142h1.124v1.142z"></path>
            <path d="M13.48 3.425h-1.124v-1.142h1.124v1.142z"></path>
            <path d="M12.356 3.425h-1.124v-1.142h1.124v1.142z"></path>
            <path d="M3.36 3.425h-1.124v-1.142h1.124v1.142z"></path>
            <path d="M2.236 3.425h-1.124v-1.142h1.124v1.142z"></path>
            <path d="M1.111 3.425h-1.124v-1.142h1.124v1.142z"></path>
            <path d="M17.978 2.283h-1.124v-1.142h1.124v1.142z"></path>
            <path d="M13.48 2.283h-1.124v-1.142h1.124v1.142z"></path>
            <path d="M12.356 2.283h-1.124v-1.142h1.124v1.142z"></path>
            <path d="M11.231 2.283h-1.124v-1.142h1.124v1.142z"></path>
            <path d="M3.36 2.283h-1.124v-1.142h1.124v1.142z"></path>
            <path d="M2.236 2.283h-1.124v-1.142h1.124v1.142z"></path>
            <path d="M17.978 1.142h-1.124v-1.142h1.124v1.142z"></path>
            <path d="M16.854 1.142h-1.124v-1.142h1.124v1.142z"></path>
            <path d="M12.356 1.142h-1.124v-1.142h1.124v1.142z"></path>
            <path d="M11.231 1.142h-1.124v-1.142h1.124v1.142z"></path>
            <path d="M10.107 1.142h-1.124v-1.142h1.124v1.142z"></path>
            <path d="M3.36 1.142h-1.124v-1.142h1.124v1.142z"></path>
        </symbol>
        <symbol id="icon-footer-element" viewBox="0 0 44 32">
            <path d="M34.386 32.814h-1.636v-1.66h1.636v1.66z"></path>
            <path d="M32.75 32.814h-1.636v-1.66h1.636v1.66z"></path>
            <path d="M31.114 32.814h-1.636v-1.66h1.636v1.66z"></path>
            <path d="M21.299 32.814h-1.636v-1.66h1.636v1.66z"></path>
            <path d="M19.663 32.814h-1.636v-1.66h1.636v1.66z"></path>
            <path d="M18.027 32.814h-1.636v-1.66h1.636v1.66z"></path>
            <path d="M3.304 32.814h-1.636v-1.66h1.636v1.66z"></path>
            <path d="M1.668 32.814h-1.636v-1.66h1.636v1.66z"></path>
            <path d="M42.566 31.153h-1.636v-1.661h1.636v1.661z"></path>
            <path d="M27.843 31.153h-1.636v-1.661h1.636v1.661z"></path>
            <path d="M24.571 31.153h-1.636v-1.661h1.636v1.661z"></path>
            <path d="M9.848 31.153h-1.636v-1.661h1.636v1.661z"></path>
            <path d="M1.668 31.153h-1.636v-1.661h1.636v1.661z"></path>
            <path d="M42.566 29.493h-1.636v-1.66h1.636v1.66z"></path>
            <path d="M40.93 29.493h-1.636v-1.66h1.636v1.66z"></path>
            <path d="M29.479 29.493h-1.636v-1.66h1.636v1.66z"></path>
            <path d="M27.843 29.493h-1.636v-1.66h1.636v1.66z"></path>
            <path d="M24.571 29.493h-1.636v-1.66h1.636v1.66z"></path>
            <path d="M22.935 29.493h-1.636v-1.66h1.636v1.66z"></path>
            <path d="M11.484 29.493h-1.636v-1.66h1.636v1.66z"></path>
            <path d="M9.848 29.493h-1.636v-1.66h1.636v1.66z"></path>
            <path d="M42.566 27.832h-1.636v-1.66h1.636v1.66z"></path>
            <path d="M40.93 27.832h-1.636v-1.66h1.636v1.66z"></path>
            <path d="M39.294 27.832h-1.636v-1.66h1.636v1.66z"></path>
            <path d="M31.114 27.832h-1.636v-1.66h1.636v1.66z"></path>
            <path d="M29.479 27.832h-1.636v-1.66h1.636v1.66z"></path>
            <path d="M22.935 27.832h-1.636v-1.66h1.636v1.66z"></path>
            <path d="M21.299 27.832h-1.636v-1.66h1.636v1.66z"></path>
            <path d="M13.12 27.832h-1.636v-1.66h1.636v1.66z"></path>
            <path d="M11.484 27.832h-1.636v-1.66h1.636v1.66z"></path>
            <path d="M9.848 27.832h-1.636v-1.66h1.636v1.66z"></path>
            <path d="M40.93 26.172h-1.636v-1.66h1.636v1.66z"></path>
            <path d="M39.294 26.172h-1.636v-1.66h1.636v1.66z"></path>
            <path d="M32.75 26.172h-1.636v-1.66h1.636v1.66z"></path>
            <path d="M31.114 26.172h-1.636v-1.66h1.636v1.66z"></path>
            <path d="M21.299 26.172h-1.636v-1.66h1.636v1.66z"></path>
            <path d="M19.663 26.172h-1.636v-1.66h1.636v1.66z"></path>
            <path d="M13.12 26.172h-1.636v-1.66h1.636v1.66z"></path>
            <path d="M11.484 26.172h-1.636v-1.66h1.636v1.66z"></path>
            <path d="M44.202 24.511h-1.636v-1.66h1.636v1.66z"></path>
            <path d="M39.294 24.511h-1.636v-1.66h1.636v1.66z"></path>
            <path d="M34.386 24.511h-1.636v-1.66h1.636v1.66z"></path>
            <path d="M32.75 24.511h-1.636v-1.66h1.636v1.66z"></path>
            <path d="M19.663 24.511h-1.636v-1.66h1.636v1.66z"></path>
            <path d="M18.027 24.511h-1.636v-1.66h1.636v1.66z"></path>
            <path d="M13.12 24.511h-1.636v-1.66h1.636v1.66z"></path>
            <path d="M8.212 24.511h-1.636v-1.66h1.636v1.66z"></path>
            <path d="M6.576 24.511h-1.636v-1.66h1.636v1.66z"></path>
            <path d="M4.94 24.511h-1.636v-1.66h1.636v1.66z"></path>
            <path d="M44.202 22.851h-1.636v-1.66h1.636v1.66z"></path>
            <path d="M42.566 22.851h-1.636v-1.66h1.636v1.66z"></path>
            <path d="M36.022 22.851h-1.636v-1.66h1.636v1.66z"></path>
            <path d="M34.386 22.851h-1.636v-1.66h1.636v1.66z"></path>
            <path d="M18.027 22.851h-1.636v-1.66h1.636v1.66z"></path>
            <path d="M16.392 22.851h-1.636v-1.66h1.636v1.66z"></path>
            <path d="M9.848 22.851h-1.636v-1.66h1.636v1.66z"></path>
            <path d="M8.212 22.851h-1.636v-1.66h1.636v1.66z"></path>
            <path d="M6.576 22.851h-1.636v-1.66h1.636v1.66z"></path>
            <path d="M44.202 21.19h-1.636v-1.66h1.636v1.66z"></path>
            <path d="M42.566 21.19h-1.636v-1.66h1.636v1.66z"></path>
            <path d="M40.93 21.19h-1.636v-1.66h1.636v1.66z"></path>
            <path d="M37.658 21.19h-1.636v-1.66h1.636v1.66z"></path>
            <path d="M36.022 21.19h-1.636v-1.66h1.636v1.66z"></path>
            <path d="M26.207 21.19h-1.636v-1.66h1.636v1.66z"></path>
            <path d="M16.392 21.19h-1.636v-1.66h1.636v1.66z"></path>
            <path d="M14.756 21.19h-1.636v-1.66h1.636v1.66z"></path>
            <path d="M11.484 21.19h-1.636v-1.66h1.636v1.66z"></path>
            <path d="M9.848 21.19h-1.636v-1.66h1.636v1.66z"></path>
            <path d="M8.212 21.19h-1.636v-1.66h1.636v1.66z"></path>
            <path d="M1.636 19.53h-1.636v-1.661h1.636v1.661z"></path>
            <path d="M3.304 19.53h-1.636v-1.661h1.636v1.661z"></path>
            <path d="M1.636 21.19h-1.636v-1.66h1.636v1.66z"></path>
            <path d="M1.636 17.869h-1.636v-1.661h1.636v1.661z"></path>
            <path d="M27.843 19.53h-1.636v-1.661h1.636v1.661z"></path>
            <path d="M26.207 19.53h-1.636v-1.661h1.636v1.661z"></path>
            <path d="M24.571 19.53h-1.636v-1.661h1.636v1.661z"></path>
            <path d="M44.202 17.869h-1.636v-1.661h1.636v1.661z"></path>
            <path d="M42.566 17.869h-1.636v-1.661h1.636v1.661z"></path>
            <path d="M40.93 17.869h-1.636v-1.661h1.636v1.661z"></path>
            <path d="M37.658 17.869h-1.636v-1.661h1.636v1.661z"></path>
            <path d="M36.022 17.869h-1.636v-1.661h1.636v1.661z"></path>
            <path d="M26.207 17.869h-1.636v-1.661h1.636v1.661z"></path>
            <path d="M16.392 17.869h-1.636v-1.661h1.636v1.661z"></path>
            <path d="M14.756 17.869h-1.636v-1.661h1.636v1.661z"></path>
            <path d="M11.484 17.869h-1.636v-1.661h1.636v1.661z"></path>
            <path d="M9.848 17.869h-1.636v-1.661h1.636v1.661z"></path>
            <path d="M8.212 17.869h-1.636v-1.661h1.636v1.661z"></path>
            <path d="M44.202 16.209h-1.636v-1.66h1.636v1.66z"></path>
            <path d="M42.566 16.209h-1.636v-1.66h1.636v1.66z"></path>
            <path d="M36.022 16.209h-1.636v-1.66h1.636v1.66z"></path>
            <path d="M34.386 16.209h-1.636v-1.66h1.636v1.66z"></path>
            <path d="M18.027 16.209h-1.636v-1.66h1.636v1.66z"></path>
            <path d="M16.392 16.209h-1.636v-1.66h1.636v1.66z"></path>
            <path d="M9.848 16.209h-1.636v-1.66h1.636v1.66z"></path>
            <path d="M8.212 16.209h-1.636v-1.66h1.636v1.66z"></path>
            <path d="M6.576 16.209h-1.636v-1.66h1.636v1.66z"></path>
            <path d="M44.202 14.548h-1.636v-1.66h1.636v1.66z"></path>
            <path d="M39.294 14.548h-1.636v-1.66h1.636v1.66z"></path>
            <path d="M34.386 14.548h-1.636v-1.66h1.636v1.66z"></path>
            <path d="M32.75 14.548h-1.636v-1.66h1.636v1.66z"></path>
            <path d="M19.663 14.548h-1.636v-1.66h1.636v1.66z"></path>
            <path d="M18.027 14.548h-1.636v-1.66h1.636v1.66z"></path>
            <path d="M13.12 14.548h-1.636v-1.66h1.636v1.66z"></path>
            <path d="M8.212 14.548h-1.636v-1.66h1.636v1.66z"></path>
            <path d="M6.576 14.548h-1.636v-1.66h1.636v1.66z"></path>
            <path d="M4.94 14.548h-1.636v-1.66h1.636v1.66z"></path>
            <path d="M40.93 12.888h-1.636v-1.66h1.636v1.66z"></path>
            <path d="M39.294 12.888h-1.636v-1.66h1.636v1.66z"></path>
            <path d="M32.75 12.888h-1.636v-1.66h1.636v1.66z"></path>
            <path d="M31.114 12.888h-1.636v-1.66h1.636v1.66z"></path>
            <path d="M21.299 12.888h-1.636v-1.66h1.636v1.66z"></path>
            <path d="M19.663 12.888h-1.636v-1.66h1.636v1.66z"></path>
            <path d="M13.12 12.888h-1.636v-1.66h1.636v1.66z"></path>
            <path d="M11.484 12.888h-1.636v-1.66h1.636v1.66z"></path>
            <path d="M42.566 11.227h-1.636v-1.66h1.636v1.66z"></path>
            <path d="M40.93 11.227h-1.636v-1.66h1.636v1.66z"></path>
            <path d="M39.294 11.227h-1.636v-1.66h1.636v1.66z"></path>
            <path d="M31.114 11.227h-1.636v-1.66h1.636v1.66z"></path>
            <path d="M29.479 11.227h-1.636v-1.66h1.636v1.66z"></path>
            <path d="M22.935 11.227h-1.636v-1.66h1.636v1.66z"></path>
            <path d="M21.299 11.227h-1.636v-1.66h1.636v1.66z"></path>
            <path d="M13.12 11.227h-1.636v-1.66h1.636v1.66z"></path>
            <path d="M11.484 11.227h-1.636v-1.66h1.636v1.66z"></path>
            <path d="M9.848 11.227h-1.636v-1.66h1.636v1.66z"></path>
            <path d="M42.566 9.567h-1.636v-1.66h1.636v1.66z"></path>
            <path d="M40.93 9.567h-1.636v-1.66h1.636v1.66z"></path>
            <path d="M29.479 9.567h-1.636v-1.66h1.636v1.66z"></path>
            <path d="M27.843 9.567h-1.636v-1.66h1.636v1.66z"></path>
            <path d="M24.571 9.567h-1.636v-1.66h1.636v1.66z"></path>
            <path d="M22.935 9.567h-1.636v-1.66h1.636v1.66z"></path>
            <path d="M11.484 9.567h-1.636v-1.66h1.636v1.66z"></path>
            <path d="M9.848 9.567h-1.636v-1.66h1.636v1.66z"></path>
            <path d="M42.566 7.906h-1.636v-1.66h1.636v1.66z"></path>
            <path d="M27.843 7.906h-1.636v-1.66h1.636v1.66z"></path>
            <path d="M24.571 7.906h-1.636v-1.66h1.636v1.66z"></path>
            <path d="M9.848 7.906h-1.636v-1.66h1.636v1.66z"></path>
            <path d="M1.668 6.246h-1.636v-1.66h1.636v1.66z"></path>
            <path d="M34.386 4.585h-1.636v-1.66h1.636v1.66z"></path>
            <path d="M32.75 4.585h-1.636v-1.66h1.636v1.66z"></path>
            <path d="M31.114 4.585h-1.636v-1.66h1.636v1.66z"></path>
            <path d="M21.299 4.585h-1.636v-1.66h1.636v1.66z"></path>
            <path d="M19.663 4.585h-1.636v-1.66h1.636v1.66z"></path>
            <path d="M18.027 4.585h-1.636v-1.66h1.636v1.66z"></path>
            <path d="M3.304 4.585h-1.636v-1.66h1.636v1.66z"></path>
            <path d="M1.668 4.585h-1.636v-1.66h1.636v1.66z"></path>
            <path d="M36.022 2.925h-1.636v-1.66h1.636v1.66z"></path>
            <path d="M34.386 2.925h-1.636v-1.66h1.636v1.66z"></path>
            <path d="M32.75 2.925h-1.636v-1.66h1.636v1.66z"></path>
            <path d="M27.843 2.925h-1.636v-1.66h1.636v1.66z"></path>
            <path d="M24.571 2.925h-1.636v-1.66h1.636v1.66z"></path>
            <path d="M19.663 2.925h-1.636v-1.66h1.636v1.66z"></path>
            <path d="M18.027 2.925h-1.636v-1.66h1.636v1.66z"></path>
            <path d="M16.392 2.925h-1.636v-1.66h1.636v1.66z"></path>
            <path d="M4.94 2.925h-1.636v-1.66h1.636v1.66z"></path>
            <path d="M3.304 2.925h-1.636v-1.66h1.636v1.66z"></path>
            <path d="M1.668 2.925h-1.636v-1.66h1.636v1.66z"></path>
            <path d="M37.658 1.264h-1.636v-1.66h1.636v1.66z"></path>
            <path d="M36.022 1.264h-1.636v-1.66h1.636v1.66z"></path>
            <path d="M34.386 1.264h-1.636v-1.66h1.636v1.66z"></path>
            <path d="M29.479 1.264h-1.636v-1.66h1.636v1.66z"></path>
            <path d="M27.843 1.264h-1.636v-1.66h1.636v1.66z"></path>
            <path d="M24.571 1.264h-1.636v-1.66h1.636v1.66z"></path>
            <path d="M22.935 1.264h-1.636v-1.66h1.636v1.66z"></path>
            <path d="M18.027 1.264h-1.636v-1.66h1.636v1.66z"></path>
            <path d="M16.392 1.264h-1.636v-1.66h1.636v1.66z"></path>
            <path d="M14.756 1.264h-1.636v-1.66h1.636v1.66z"></path>
            <path d="M6.576 1.264h-1.636v-1.66h1.636v1.66z"></path>
            <path d="M4.94 1.264h-1.636v-1.66h1.636v1.66z"></path>
            <path d="M3.304 1.264h-1.636v-1.66h1.636v1.66z"></path>
        </symbol>
        <symbol id="icon-order-element" viewBox="0 0 22 32">
            <path d="M21.439 31.964h-1.124v-1.142h1.124v1.142z"></path>
            <path d="M20.315 31.964h-1.124v-1.142h1.124v1.142z"></path>
            <path d="M15.82 31.964h-1.124v-1.142h1.124v1.142z"></path>
            <path d="M14.696 31.964h-1.124v-1.142h1.124v1.142z"></path>
            <path d="M13.572 31.964h-1.124v-1.142h1.124v1.142z"></path>
            <path d="M6.829 31.964h-1.124v-1.142h1.124v1.142z"></path>
            <path d="M0.087 31.964h-1.124v-1.142h1.124v1.142z"></path>
            <path d="M21.439 30.823h-1.124v-1.142h1.124v1.142z"></path>
            <path d="M16.944 30.823h-1.124v-1.142h1.124v1.142z"></path>
            <path d="M15.82 30.823h-1.124v-1.142h1.124v1.142z"></path>
            <path d="M14.696 30.823h-1.124v-1.142h1.124v1.142z"></path>
            <path d="M6.829 30.823h-1.124v-1.142h1.124v1.142z"></path>
            <path d="M5.706 30.823h-1.124v-1.142h1.124v1.142z"></path>
            <path d="M1.21 30.823h-1.124v-1.142h1.124v1.142z"></path>
            <path d="M0.087 30.823h-1.124v-1.142h1.124v1.142z"></path>
            <path d="M18.068 29.681h-1.124v-1.142h1.124v1.142z"></path>
            <path d="M16.944 29.681h-1.124v-1.142h1.124v1.142z"></path>
            <path d="M15.82 29.681h-1.124v-1.142h1.124v1.142z"></path>
            <path d="M6.829 29.681h-1.124v-1.142h1.124v1.142z"></path>
            <path d="M5.706 29.681h-1.124v-1.142h1.124v1.142z"></path>
            <path d="M4.582 29.681h-1.124v-1.142h1.124v1.142z"></path>
            <path d="M2.334 29.681h-1.124v-1.142h1.124v1.142z"></path>
            <path d="M1.21 29.681h-1.124v-1.142h1.124v1.142z"></path>
            <path d="M0.087 29.681h-1.124v-1.142h1.124v1.142z"></path>
            <path d="M19.192 28.54h-1.124v-1.142h1.124v1.142z"></path>
            <path d="M18.068 28.54h-1.124v-1.142h1.124v1.142z"></path>
            <path d="M16.944 28.54h-1.124v-1.142h1.124v1.142z"></path>
            <path d="M11.325 28.54h-1.124v-1.142h1.124v1.142z"></path>
            <path d="M10.201 28.54h-1.124v-1.142h1.124v1.142z"></path>
            <path d="M9.077 28.54h-1.124v-1.142h1.124v1.142z"></path>
            <path d="M5.706 28.54h-1.124v-1.142h1.124v1.142z"></path>
            <path d="M4.582 28.54h-1.124v-1.142h1.124v1.142z"></path>
            <path d="M2.334 28.54h-1.124v-1.142h1.124v1.142z"></path>
            <path d="M1.21 28.54h-1.124v-1.142h1.124v1.142z"></path>
            <path d="M20.315 27.398h-1.124v-1.142h1.124v1.142z"></path>
            <path d="M19.192 27.398h-1.124v-1.142h1.124v1.142z"></path>
            <path d="M18.068 27.398h-1.124v-1.142h1.124v1.142z"></path>
            <path d="M10.201 27.398h-1.124v-1.142h1.124v1.142z"></path>
            <path d="M9.077 27.398h-1.124v-1.142h1.124v1.142z"></path>
            <path d="M7.953 27.398h-1.124v-1.142h1.124v1.142z"></path>
            <path d="M4.582 27.398h-1.124v-1.142h1.124v1.142z"></path>
            <path d="M2.334 27.398h-1.124v-1.142h1.124v1.142z"></path>
            <path d="M20.315 26.256h-1.124v-1.142h1.124v1.142z"></path>
            <path d="M19.192 26.256h-1.124v-1.142h1.124v1.142z"></path>
            <path d="M9.077 26.256h-1.124v-1.142h1.124v1.142z"></path>
            <path d="M7.953 26.256h-1.124v-1.142h1.124v1.142z"></path>
            <path d="M6.829 26.256h-1.124v-1.142h1.124v1.142z"></path>
            <path d="M0.087 26.256h-1.124v-1.142h1.124v1.142z"></path>
            <path d="M20.315 25.115h-1.124v-1.142h1.124v1.142z"></path>
            <path d="M14.696 25.115h-1.124v-1.142h1.124v1.142z"></path>
            <path d="M4.582 25.115h-1.124v-1.142h1.124v1.142z"></path>
            <path d="M2.334 25.115h-1.124v-1.142h1.124v1.142z"></path>
            <path d="M14.696 23.973h-1.124v-1.142h1.124v1.142z"></path>
            <path d="M13.572 23.973h-1.124v-1.142h1.124v1.142z"></path>
            <path d="M5.706 23.973h-1.124v-1.142h1.124v1.142z"></path>
            <path d="M4.582 23.973h-1.124v-1.142h1.124v1.142z"></path>
            <path d="M2.334 23.973h-1.124v-1.142h1.124v1.142z"></path>
            <path d="M1.21 23.973h-1.124v-1.142h1.124v1.142z"></path>
            <path d="M14.696 22.832h-1.124v-1.142h1.124v1.142z"></path>
            <path d="M13.572 22.832h-1.124v-1.142h1.124v1.142z"></path>
            <path d="M12.449 22.832h-1.124v-1.142h1.124v1.142z"></path>
            <path d="M6.829 22.832h-1.124v-1.142h1.124v1.142z"></path>
            <path d="M5.706 22.832h-1.124v-1.142h1.124v1.142z"></path>
            <path d="M1.21 22.832h-1.124v-1.142h1.124v1.142z"></path>
            <path d="M0.087 22.832h-1.124v-1.142h1.124v1.142z"></path>
            <path d="M13.572 21.69h-1.124v-1.142h1.124v1.142z"></path>
            <path d="M12.449 21.69h-1.124v-1.142h1.124v1.142z"></path>
            <path d="M7.953 21.69h-1.124v-1.142h1.124v1.142z"></path>
            <path d="M6.829 21.69h-1.124v-1.142h1.124v1.142z"></path>
            <path d="M0.087 21.69h-1.124v-1.142h1.124v1.142z"></path>
            <path d="M18.068 20.549h-1.124v-1.142h1.124v1.142z"></path>
            <path d="M16.944 20.549h-1.124v-1.142h1.124v1.142z"></path>
            <path d="M15.82 20.549h-1.124v-1.142h1.124v1.142z"></path>
            <path d="M12.449 20.549h-1.124v-1.142h1.124v1.142z"></path>
            <path d="M9.077 20.549h-1.124v-1.142h1.124v1.142z"></path>
            <path d="M7.953 20.549h-1.124v-1.142h1.124v1.142z"></path>
            <path d="M21.439 19.407h-1.124v-1.142h1.124v1.142z"></path>
            <path d="M16.944 19.407h-1.124v-1.142h1.124v1.142z"></path>
            <path d="M15.82 19.407h-1.124v-1.142h1.124v1.142z"></path>
            <path d="M14.696 19.407h-1.124v-1.142h1.124v1.142z"></path>
            <path d="M10.201 19.407h-1.124v-1.142h1.124v1.142z"></path>
            <path d="M9.077 19.407h-1.124v-1.142h1.124v1.142z"></path>
            <path d="M21.439 18.265h-1.124v-1.142h1.124v1.142z"></path>
            <path d="M20.315 18.265h-1.124v-1.142h1.124v1.142z"></path>
            <path d="M15.82 18.265h-1.124v-1.142h1.124v1.142z"></path>
            <path d="M14.696 18.265h-1.124v-1.142h1.124v1.142z"></path>
            <path d="M13.572 18.265h-1.124v-1.142h1.124v1.142z"></path>
            <path d="M11.325 18.265h-1.124v-1.142h1.124v1.142z"></path>
            <path d="M10.201 18.265h-1.124v-1.142h1.124v1.142z"></path>
            <path d="M3.458 18.265h-1.124v-1.142h1.124v1.142z"></path>
            <path d="M21.439 17.124h-1.124v-1.142h1.124v1.142z"></path>
            <path d="M20.315 17.124h-1.124v-1.142h1.124v1.142z"></path>
            <path d="M19.192 17.124h-1.124v-1.142h1.124v1.142z"></path>
            <path d="M4.582 17.124h-1.124v-1.142h1.124v1.142z"></path>
            <path d="M3.458 17.124h-1.124v-1.142h1.124v1.142z"></path>
            <path d="M2.334 17.124h-1.124v-1.142h1.124v1.142z"></path>
            <path d="M21.439 15.982h-1.124v-1.142h1.124v1.142z"></path>
            <path d="M20.315 15.982h-1.124v-1.142h1.124v1.142z"></path>
            <path d="M15.82 15.982h-1.124v-1.142h1.124v1.142z"></path>
            <path d="M14.696 15.982h-1.124v-1.142h1.124v1.142z"></path>
            <path d="M13.572 15.982h-1.124v-1.142h1.124v1.142z"></path>
            <path d="M11.325 15.982h-1.124v-1.142h1.124v1.142z"></path>
            <path d="M10.201 15.982h-1.124v-1.142h1.124v1.142z"></path>
            <path d="M3.458 15.982h-1.124v-1.142h1.124v1.142z"></path>
            <path d="M21.439 14.841h-1.124v-1.142h1.124v1.142z"></path>
            <path d="M16.944 14.841h-1.124v-1.142h1.124v1.142z"></path>
            <path d="M15.82 14.841h-1.124v-1.142h1.124v1.142z"></path>
            <path d="M14.696 14.841h-1.124v-1.142h1.124v1.142z"></path>
            <path d="M10.201 14.841h-1.124v-1.142h1.124v1.142z"></path>
            <path d="M9.077 14.841h-1.124v-1.142h1.124v1.142z"></path>
            <path d="M18.068 13.699h-1.124v-1.142h1.124v1.142z"></path>
            <path d="M16.944 13.699h-1.124v-1.142h1.124v1.142z"></path>
            <path d="M15.82 13.699h-1.124v-1.142h1.124v1.142z"></path>
            <path d="M12.449 13.699h-1.124v-1.142h1.124v1.142z"></path>
            <path d="M9.077 13.699h-1.124v-1.142h1.124v1.142z"></path>
            <path d="M7.953 13.699h-1.124v-1.142h1.124v1.142z"></path>
            <path d="M13.572 12.557h-1.124v-1.142h1.124v1.142z"></path>
            <path d="M12.449 12.557h-1.124v-1.142h1.124v1.142z"></path>
            <path d="M7.953 12.557h-1.124v-1.142h1.124v1.142z"></path>
            <path d="M6.829 12.557h-1.124v-1.142h1.124v1.142z"></path>
            <path d="M0.087 12.557h-1.124v-1.142h1.124v1.142z"></path>
            <path d="M14.696 11.416h-1.124v-1.142h1.124v1.142z"></path>
            <path d="M13.572 11.416h-1.124v-1.142h1.124v1.142z"></path>
            <path d="M12.449 11.416h-1.124v-1.142h1.124v1.142z"></path>
            <path d="M6.829 11.416h-1.124v-1.142h1.124v1.142z"></path>
            <path d="M5.706 11.416h-1.124v-1.142h1.124v1.142z"></path>
            <path d="M1.21 11.416h-1.124v-1.142h1.124v1.142z"></path>
            <path d="M0.087 11.416h-1.124v-1.142h1.124v1.142z"></path>
            <path d="M14.696 10.274h-1.124v-1.142h1.124v1.142z"></path>
            <path d="M13.572 10.274h-1.124v-1.142h1.124v1.142z"></path>
            <path d="M5.706 10.274h-1.124v-1.142h1.124v1.142z"></path>
            <path d="M4.582 10.274h-1.124v-1.142h1.124v1.142z"></path>
            <path d="M2.334 10.274h-1.124v-1.142h1.124v1.142z"></path>
            <path d="M1.21 10.274h-1.124v-1.142h1.124v1.142z"></path>
            <path d="M14.696 9.133h-1.124v-1.142h1.124v1.142z"></path>
            <path d="M4.582 9.133h-1.124v-1.142h1.124v1.142z"></path>
            <path d="M2.334 9.133h-1.124v-1.142h1.124v1.142z"></path>
            <path d="M20.315 7.991h-1.124v-1.142h1.124v1.142z"></path>
            <path d="M20.315 6.85h-1.124v-1.142h1.124v1.142z"></path>
            <path d="M19.192 6.85h-1.124v-1.142h1.124v1.142z"></path>
            <path d="M9.077 6.85h-1.124v-1.142h1.124v1.142z"></path>
            <path d="M7.953 6.85h-1.124v-1.142h1.124v1.142z"></path>
            <path d="M6.829 6.85h-1.124v-1.142h1.124v1.142z"></path>
            <path d="M0.087 6.85h-1.124v-1.142h1.124v1.142z"></path>
            <path d="M20.315 5.708h-1.124v-1.142h1.124v1.142z"></path>
            <path d="M19.192 5.708h-1.124v-1.142h1.124v1.142z"></path>
            <path d="M18.068 5.708h-1.124v-1.142h1.124v1.142z"></path>
            <path d="M10.201 5.708h-1.124v-1.142h1.124v1.142z"></path>
            <path d="M9.077 5.708h-1.124v-1.142h1.124v1.142z"></path>
            <path d="M7.953 5.708h-1.124v-1.142h1.124v1.142z"></path>
            <path d="M4.582 5.708h-1.124v-1.142h1.124v1.142z"></path>
            <path d="M2.334 5.708h-1.124v-1.142h1.124v1.142z"></path>
            <path d="M19.192 4.566h-1.124v-1.142h1.124v1.142z"></path>
            <path d="M18.068 4.566h-1.124v-1.142h1.124v1.142z"></path>
            <path d="M16.944 4.566h-1.124v-1.142h1.124v1.142z"></path>
            <path d="M11.325 4.566h-1.124v-1.142h1.124v1.142z"></path>
            <path d="M10.201 4.566h-1.124v-1.142h1.124v1.142z"></path>
            <path d="M9.077 4.566h-1.124v-1.142h1.124v1.142z"></path>
            <path d="M5.706 4.566h-1.124v-1.142h1.124v1.142z"></path>
            <path d="M4.582 4.566h-1.124v-1.142h1.124v1.142z"></path>
            <path d="M2.334 4.566h-1.124v-1.142h1.124v1.142z"></path>
            <path d="M1.21 4.566h-1.124v-1.142h1.124v1.142z"></path>
            <path d="M18.068 3.425h-1.124v-1.142h1.124v1.142z"></path>
            <path d="M16.944 3.425h-1.124v-1.142h1.124v1.142z"></path>
            <path d="M15.82 3.425h-1.124v-1.142h1.124v1.142z"></path>
            <path d="M6.829 3.425h-1.124v-1.142h1.124v1.142z"></path>
            <path d="M5.706 3.425h-1.124v-1.142h1.124v1.142z"></path>
            <path d="M4.582 3.425h-1.124v-1.142h1.124v1.142z"></path>
            <path d="M2.334 3.425h-1.124v-1.142h1.124v1.142z"></path>
            <path d="M1.21 3.425h-1.124v-1.142h1.124v1.142z"></path>
            <path d="M0.087 3.425h-1.124v-1.142h1.124v1.142z"></path>
            <path d="M21.439 2.283h-1.124v-1.142h1.124v1.142z"></path>
            <path d="M16.944 2.283h-1.124v-1.142h1.124v1.142z"></path>
            <path d="M15.82 2.283h-1.124v-1.142h1.124v1.142z"></path>
            <path d="M14.696 2.283h-1.124v-1.142h1.124v1.142z"></path>
            <path d="M6.829 2.283h-1.124v-1.142h1.124v1.142z"></path>
            <path d="M5.706 2.283h-1.124v-1.142h1.124v1.142z"></path>
            <path d="M1.21 2.283h-1.124v-1.142h1.124v1.142z"></path>
            <path d="M0.087 2.283h-1.124v-1.142h1.124v1.142z"></path>
            <path d="M21.439 1.142h-1.124v-1.142h1.124v1.142z"></path>
            <path d="M20.315 1.142h-1.124v-1.142h1.124v1.142z"></path>
            <path d="M15.82 1.142h-1.124v-1.142h1.124v1.142z"></path>
            <path d="M14.696 1.142h-1.124v-1.142h1.124v1.142z"></path>
            <path d="M13.572 1.142h-1.124v-1.142h1.124v1.142z"></path>
            <path d="M6.829 1.142h-1.124v-1.142h1.124v1.142z"></path>
            <path d="M0.087 1.142h-1.124v-1.142h1.124v1.142z"></path>
        </symbol>
    </defs>
</svg>